<svg width="1190" height="630" xmlns="http://www.w3.org/2000/svg">
 <!-- Created with Method Draw - http://github.com/duopixel/Method-Draw/ -->
 <g>
  <title>background</title>
  <rect fill="#fff" id="canvas_background" height="632" width="1192" y="-1" x="-1"/>
  <g display="none" overflow="visible" y="0" x="0" height="100%" width="100%" id="canvasGrid">
   <rect fill="url(#gridpattern)" stroke-width="0" y="0" x="0" height="100%" width="100%"/>
  </g>
 </g>
 <g>
  <title>Layer 1</title>
  <path stroke="#6D97AB" id="svg_1" d="m658.235353,1.490319c0,0 -138.418424,124.576719 2.250706,249.153439c140.66913,124.576719 -34.885944,252.81746 -34.996941,252.41747c0.110996,0.39999 563.912869,0.39999 563.801873,0c0.110996,0.39999 0.110996,-501.570909 0,-501.054893c0.110996,-0.516015 -531.055639,-0.516015 -531.055639,-0.516015z" stroke-width="1.5" fill="#33666C"/>
  <text font-weight="bold" xml:space="preserve" text-anchor="start" font-family="Helvetica, Arial, sans-serif" font-size="63" id="svg_2" y="157.172995" x="624.63405" stroke-width="0" fill="#ffffff">NEWS EXAMPLE</text>
  <text xml:space="preserve" text-anchor="start" font-family="Helvetica, Arial, sans-serif" font-size="52" id="svg_3" y="207.046868" x="801.906936" stroke-width="0" stroke="#6D97AB" fill="#ffffff">Company XYZ</text>
  <path id="svg_4" d="m240.537621,431.506436c-32.617018,-11.888074 -43.454012,-47.182889 -43.852655,-76.613885c-4.419912,-21.791633 23.371214,-37.81947 14.222063,-60.226646c-3.471924,-33.124969 7.440048,-65.934217 23.745834,-95.123657c0.515651,-18.754391 17.27521,-26.03349 35.535151,-24.965959c58.99784,-6.880318 119.061963,-7.073204 178.082192,-0.572853c35.221441,6.004346 63.290567,28.186083 93.076957,44.94022c18.475887,12.598595 40.045093,20.898597 58.628699,33.007647c20.070714,15.49693 38.926793,32.782704 52.834559,53.339969c5.003967,20.550673 11.720881,40.98293 15.159778,61.669389c6.981114,19.357478 -7.30994,31.533343 -18.120655,44.981481c-16.418268,18.337742 -47.487904,25.573481 -71.001246,15.727139c-16.331382,-5.476137 -22.342135,-28.743228 -40.961198,-27.134799c-70.196925,-0.962081 -140.393851,-1.924134 -210.590792,-2.886128c-16.262152,19.612904 -38.745922,41.047367 -68.14542,37.995043c-6.388072,-0.491206 -12.668282,-1.951087 -18.613299,-4.136962l0.000032,0z" stroke-width="1.5" stroke="#000000" fill="#33666C"/>
 </g>
</svg>